<?xml version="1.0" standalone="no"?>
<!DOCTYPE svg PUBLIC "-//W3C//DTD SVG 20010904//EN"
 "http://www.w3.org/TR/2001/REC-SVG-20010904/DTD/svg10.dtd">
<svg version="1.0" xmlns="http://www.w3.org/2000/svg"
 width="2060.000000pt" height="2060.000000pt" viewBox="0 0 2060.000000 2060.000000"
 preserveAspectRatio="xMidYMid meet">

<g transform="translate(0.000000,2060.000000) scale(0.100000,-0.100000)"
fill="#000000" stroke="none">
<path d="M7175 16816 c-23 -35 -15 -83 26 -149 64 -105 197 -263 313 -371 299
-279 370 -362 398 -460 14 -54 14 -179 -2 -247 -6 -30 -31 -94 -55 -144 -38
-79 -61 -109 -182 -238 -260 -278 -369 -418 -446 -573 -69 -137 -80 -197 -80
-414 0 -266 38 -456 139 -704 94 -231 127 -251 488 -292 227 -26 413 -45 431
-45 6 0 50 8 99 16 171 30 324 108 469 241 l65 59 43 137 c24 76 48 138 53
138 4 0 5 -12 1 -27 -3 -16 -9 -146 -12 -289 -7 -337 5 -471 83 -904 92 -515
236 -965 439 -1371 93 -186 74 -169 182 -169 l93 0 -36 56 c-109 171 -291 592
-399 924 -118 366 -253 971 -287 1290 -20 190 -17 641 5 757 23 123 25 702 3
830 -32 185 -106 276 -320 393 -236 129 -402 267 -508 423 -22 32 -89 154
-150 270 -170 327 -219 394 -432 586 -245 221 -325 283 -379 296 -20 5 -29 1
-42 -19z m1177 -1706 c209 -64 399 -277 478 -535 51 -164 53 -388 6 -548 -107
-361 -372 -562 -715 -544 -135 7 -241 34 -361 93 -78 39 -110 62 -176 128 -95
96 -133 159 -169 281 -34 116 -38 290 -11 405 52 215 169 409 334 553 198 174
409 231 614 167z m-957 -1545 c53 -63 165 -142 287 -202 84 -42 89 -46 74 -61
-13 -13 -36 -17 -104 -17 -150 1 -246 51 -290 153 -26 61 -62 197 -62 236 0
31 0 31 26 -14 14 -24 45 -67 69 -95z"/>
<path d="M11605 14959 c-77 -11 -173 -59 -218 -108 -28 -31 -37 -51 -42 -96
-14 -107 18 -151 238 -330 118 -95 179 -166 223 -260 42 -88 52 -155 60 -375
11 -309 -23 -661 -81 -830 -51 -149 -173 -381 -459 -875 -126 -217 -161 -287
-212 -422 -70 -186 -106 -253 -261 -482 l-113 -166 182 -3 c99 -1 182 -1 184
1 2 2 15 43 29 93 33 112 110 328 165 459 189 451 419 730 727 884 121 60 285
113 594 191 442 111 579 163 764 285 335 222 567 651 625 1155 20 173 15 314
-14 425 -29 109 -55 173 -92 226 -28 40 -75 59 -249 98 -308 68 -567 84 -740
46 -172 -38 -540 -69 -765 -63 -183 4 -181 3 -365 106 -84 48 -102 52 -180 41z
m1643 -214 c249 -50 443 -209 538 -443 168 -416 -84 -985 -524 -1184 -306
-139 -787 -74 -1020 137 -122 111 -146 189 -146 465 0 209 14 296 64 395 92
187 384 481 570 575 145 73 327 92 518 55z m-1518 -102 c183 -116 181 -115
290 -110 52 3 120 12 150 20 30 9 57 14 59 12 2 -2 -11 -18 -28 -35 -85 -86
-178 -390 -216 -705 -8 -71 -15 -139 -15 -149 0 -11 -3 -17 -6 -13 -3 3 -7
113 -8 244 -2 213 -4 245 -24 303 -43 130 -84 174 -253 273 -91 53 -179 133
-179 162 0 25 62 63 105 64 11 1 67 -29 125 -66z m2115 -85 c20 -62 40 -142
45 -178 19 -131 30 -221 30 -247 0 -45 -16 -13 -29 57 -25 133 -96 297 -157
361 -13 14 -24 28 -24 33 0 11 73 83 87 85 7 0 27 -45 48 -111z m72 -480 c-3
-8 -6 -5 -6 6 -1 11 2 17 5 13 3 -3 4 -12 1 -19z m-1869 -951 c93 -105 368
-226 582 -258 44 -6 80 -14 80 -18 0 -4 -28 -13 -62 -20 -239 -49 -560 -174
-791 -307 -43 -25 -81 -44 -83 -42 -2 3 16 49 40 104 83 188 126 351 148 551
l12 113 28 -52 c16 -28 36 -61 46 -71z"/>
<path d="M8807 13424 c-31 -64 -95 -140 -150 -178 -73 -49 -142 -66 -292 -73
-103 -5 -124 -8 -100 -16 171 -55 328 -158 404 -267 57 -81 136 -242 171 -350
53 -160 70 -271 75 -493 6 -232 24 -376 60 -483 33 -97 61 -137 181 -254 91
-88 192 -223 208 -277 7 -21 14 -23 72 -23 75 0 76 -14 -13 132 -162 265 -258
545 -446 1303 -113 451 -136 587 -146 854 l-6 164 -18 -39z"/>
<path d="M3800 9620 l0 -770 453 0 c482 0 514 3 608 51 54 27 121 90 158 147
92 146 79 362 -31 487 -34 40 -66 60 -148 91 l-55 22 56 25 c72 32 133 87 167
151 25 47 27 60 27 171 0 105 -3 126 -23 167 -33 66 -101 139 -159 171 -101
54 -128 57 -610 57 l-443 0 0 -770z m767 407 c25 -25 28 -34 28 -98 0 -67 -2
-72 -33 -100 l-32 -29 -150 0 -150 0 0 131 0 130 155 -3 c154 -3 155 -3 182
-31z m4 -573 c53 -27 74 -110 45 -178 -25 -61 -42 -66 -223 -66 l-163 0 0 130
0 130 155 0 c122 0 163 -3 186 -16z"/>
<path d="M5399 9633 c-138 -417 -254 -764 -257 -771 -3 -10 43 -12 224 -10
l227 3 45 133 44 132 246 -2 245 -3 45 -132 44 -133 245 0 c192 0 244 3 241
13 -3 6 -119 353 -257 770 l-253 757 -293 0 -293 0 -253 -757z m596 60 c33
-119 61 -222 63 -230 3 -10 -25 -13 -133 -13 -110 0 -136 3 -132 13 3 8 28 96
57 198 63 228 70 249 78 249 4 0 34 -98 67 -217z"/>
<path d="M6870 9620 l0 -770 230 0 230 0 0 300 0 300 65 0 c202 0 245 -53 264
-327 7 -94 14 -133 31 -169 28 -57 89 -98 169 -115 69 -14 267 -6 331 13 44
13 45 15 48 60 3 43 1 47 -31 67 -51 31 -67 81 -77 240 -16 232 -67 329 -210
398 -38 18 -42 23 -25 28 130 40 244 183 261 325 19 165 -97 331 -276 395 -51
18 -88 20 -532 23 l-478 3 0 -771z m727 409 c68 -25 96 -87 74 -160 -20 -67
-52 -79 -208 -79 l-133 0 0 125 0 125 119 0 c66 0 132 -5 148 -11z"/>
<path d="M8390 9620 l0 -770 453 0 c482 0 514 3 608 51 54 27 121 90 158 147
92 146 79 362 -31 487 -34 40 -66 60 -148 91 l-55 22 56 25 c72 32 133 87 167
151 25 47 27 60 27 171 0 105 -3 126 -23 167 -33 66 -101 139 -159 171 -101
54 -128 57 -610 57 l-443 0 0 -770z m767 407 c25 -25 28 -34 28 -98 0 -67 -2
-72 -33 -100 l-32 -29 -150 0 -150 0 0 131 0 130 155 -3 c154 -3 155 -3 182
-31z m4 -573 c53 -27 74 -110 45 -178 -25 -61 -42 -66 -223 -66 l-163 0 0 130
0 130 155 0 c122 0 163 -3 186 -16z"/>
<path d="M9870 9620 l0 -770 575 0 c541 0 575 1 575 18 0 9 -9 87 -20 172 -11
85 -20 161 -20 168 0 9 -72 12 -325 12 l-325 0 0 125 0 125 310 0 310 0 0 170
0 170 -310 0 -310 0 0 110 0 110 324 0 323 0 17 128 c9 70 19 151 23 180 l6
52 -577 0 -576 0 0 -770z"/>
<path d="M11329 9633 c-138 -417 -254 -764 -257 -771 -3 -10 43 -12 224 -10
l227 3 45 133 44 132 246 -2 245 -3 45 -132 44 -133 245 0 c192 0 244 3 241
13 -3 6 -119 353 -257 770 l-253 757 -293 0 -293 0 -253 -757z m596 60 c33
-119 61 -222 63 -230 3 -10 -25 -13 -133 -13 -110 0 -136 3 -132 13 3 8 28 96
57 198 63 228 70 249 78 249 4 0 34 -98 67 -217z"/>
<path d="M12800 9620 l0 -770 230 0 230 0 0 300 0 300 65 0 c202 0 245 -53
264 -327 7 -94 14 -133 31 -169 28 -57 89 -98 169 -115 69 -14 267 -6 331 13
44 13 45 15 48 60 3 43 1 47 -31 67 -51 31 -67 81 -77 240 -16 232 -67 329
-210 398 -38 18 -42 23 -25 28 130 40 244 183 261 325 19 165 -97 331 -276
395 -51 18 -88 20 -532 23 l-478 3 0 -771z m727 409 c68 -25 96 -87 74 -160
-20 -67 -52 -79 -208 -79 l-133 0 0 125 0 125 119 0 c66 0 132 -5 148 -11z"/>
<path d="M14280 10225 l0 -165 90 0 90 0 0 -440 0 -440 -90 0 -90 0 0 -165 0
-165 420 0 420 0 0 165 0 165 -90 0 -90 0 0 440 0 440 90 0 90 0 0 165 0 165
-420 0 -420 0 0 -165z"/>
<path d="M15449 9633 c-138 -417 -254 -764 -257 -771 -3 -10 43 -12 224 -10
l227 3 45 133 44 132 246 -2 245 -3 45 -132 44 -133 245 0 c192 0 244 3 241
13 -3 6 -119 353 -257 770 l-253 757 -293 0 -293 0 -253 -757z m596 60 c33
-119 61 -222 63 -230 3 -10 -25 -13 -133 -13 -110 0 -136 3 -132 13 3 8 28 96
57 198 63 228 70 249 78 249 4 0 34 -98 67 -217z"/>
<path d="M2365 9475 c285 -167 522 -308 526 -312 4 -5 -227 -145 -513 -313
-286 -168 -522 -308 -525 -312 -2 -5 379 -8 846 -8 l851 0 0 625 0 625 -852 0
-852 0 519 -305z"/>
<path d="M17050 9155 l0 -625 853 1 c785 0 850 1 829 16 -13 9 -246 147 -519
308 -273 160 -498 296 -499 301 -2 5 231 146 516 313 286 167 520 306 520 308
0 1 -382 3 -850 3 l-850 0 0 -625z"/>
<path d="M9212 7988 c-251 -532 -528 -1201 -820 -1978 -187 -499 -329 -966
-426 -1395 -60 -268 -70 -339 -70 -496 -1 -131 1 -149 18 -168 21 -23 56 -27
86 -11 30 16 66 86 101 195 36 115 186 429 346 725 270 500 471 881 723 1365
117 226 288 554 380 730 92 176 225 433 295 570 70 138 154 299 187 358 64
117 102 208 113 275 l7 42 -278 -2 -279 -3 -73 -130 c-286 -502 -497 -902
-612 -1155 -140 -308 -410 -967 -575 -1405 -80 -210 -133 -338 -134 -323 -2
14 161 472 304 858 225 607 375 977 515 1265 82 169 325 639 406 788 30 53 54
99 54 102 0 3 -38 5 -84 5 l-83 0 -101 -212z"/>
<path d="M10685 8191 c-11 -5 -63 -14 -115 -22 -52 -7 -98 -15 -102 -19 -9 -6
71 -250 207 -630 200 -561 425 -1128 605 -1520 61 -134 245 -506 260 -525 4
-5 23 -39 42 -75 19 -36 78 -144 130 -240 269 -494 379 -698 577 -1070 80
-149 154 -275 169 -288 15 -12 44 -28 65 -34 32 -10 40 -9 54 5 18 18 14 42
-48 337 -16 74 -33 158 -39 185 -21 102 -110 483 -135 580 -102 393 -180 635
-382 1175 -475 1274 -616 1645 -658 1735 -71 151 -152 346 -160 383 l-7 32
-221 -1 c-122 0 -231 -4 -242 -8z m476 -1488 c52 -111 215 -456 304 -643 45
-96 113 -238 150 -315 37 -77 91 -189 120 -250 93 -194 290 -605 379 -789 48
-98 84 -181 82 -183 -9 -10 -144 210 -253 412 -235 436 -544 1115 -809 1778
-31 79 -13 72 27 -10z"/>
<path d="M6990 8139 c-1172 -21 -2203 -76 -2809 -150 -274 -33 -435 -102 -571
-245 -150 -158 -180 -313 -180 -930 0 -520 49 -1349 101 -1708 37 -257 128
-705 140 -684 3 7 9 103 13 213 4 110 9 238 11 285 3 47 12 247 20 445 8 198
20 461 25 585 5 124 13 299 16 390 4 91 9 212 13 270 l6 105 63 3 c62 3 62 3
62 -25 0 -15 -9 -273 -20 -573 -11 -300 -20 -626 -21 -725 -2 -158 26 -708 36
-742 3 -7 11 -13 19 -13 20 0 21 30 46 805 31 982 41 1259 45 1273 3 8 25 12
66 12 l61 0 -7 -227 c-4 -126 -15 -444 -24 -708 -16 -474 -16 -484 5 -820 12
-187 22 -341 23 -342 4 -9 31 -1 32 10 1 6 3 26 4 42 2 17 9 212 15 435 7 223
22 677 34 1010 l21 605 60 6 c33 3 62 5 65 3 3 -1 2 -87 -2 -191 -3 -103 -9
-278 -12 -388 -4 -110 -11 -333 -17 -495 -9 -246 -6 -616 6 -679 1 -9 6 -86
10 -171 8 -170 17 -213 39 -189 10 11 16 101 25 374 6 198 18 567 26 820 9
253 19 562 23 687 4 125 9 229 12 231 3 3 32 7 65 9 l59 3 -2 -120 c-2 -66
-10 -311 -18 -545 -21 -567 -21 -960 -1 -1239 9 -123 20 -228 25 -233 5 -5 13
-3 19 4 6 8 19 273 32 668 37 1107 51 1463 56 1468 2 2 30 5 62 6 l58 1 -3
-150 c-1 -82 -12 -414 -23 -737 l-20 -586 20 -326 c12 -179 21 -332 21 -341 0
-18 29 -20 35 -2 4 11 24 566 55 1512 18 558 22 630 34 637 6 4 35 8 64 8 l52
0 0 -42 c0 -39 -9 -293 -40 -1183 -6 -177 -6 -334 0 -425 5 -80 14 -228 20
-330 11 -178 19 -215 40 -194 5 5 14 138 20 294 10 278 43 1264 56 1665 3 110
10 205 15 211 5 6 34 12 65 13 l57 2 -7 -233 c-4 -128 -11 -345 -16 -483 -10
-259 -25 -748 -24 -800 0 -45 15 -317 28 -510 9 -139 14 -170 26 -170 23 0 27
59 40 525 6 234 13 457 15 495 2 39 12 315 21 615 15 464 19 547 32 558 17 13
108 17 115 5 2 -5 0 -96 -4 -203 -4 -107 -10 -301 -14 -430 -4 -129 -12 -383
-19 -565 -10 -301 -10 -360 9 -667 11 -185 24 -340 28 -344 31 -31 33 18 81
1526 21 652 23 682 38 692 7 4 36 7 63 6 l50 -3 -2 -115 c-2 -63 -7 -248 -13
-410 -32 -981 -33 -1034 -22 -1220 7 -102 15 -246 18 -320 4 -74 11 -144 17
-154 9 -18 11 -18 22 -3 8 12 14 91 19 250 4 127 13 421 21 652 8 231 17 494
20 585 16 477 26 735 31 739 3 3 31 6 62 6 l57 0 -2 -130 c-1 -71 -12 -429
-24 -795 l-22 -665 21 -324 c12 -178 24 -326 26 -329 3 -2 12 -2 19 1 12 4 16
47 21 209 4 112 13 392 21 623 8 231 22 643 31 915 9 272 17 496 18 496 0 1
29 4 64 7 l62 5 0 -56 c0 -32 -7 -241 -14 -467 -39 -1098 -39 -1053 -17 -1404
19 -306 27 -360 50 -336 5 6 14 161 21 345 6 184 20 587 30 895 11 308 22 661
26 785 3 124 10 229 14 233 4 4 33 7 65 5 l58 -3 -2 -95 c-1 -52 -6 -212 -11
-355 -5 -143 -12 -348 -15 -455 -3 -107 -10 -305 -15 -440 -6 -153 -6 -300 0
-390 5 -80 12 -185 14 -235 13 -227 19 -296 28 -301 28 -18 29 -4 58 886 11
335 13 423 30 915 5 160 11 329 12 378 1 48 5 92 8 98 4 6 32 9 66 7 l59 -3
-1 -35 c-3 -157 -40 -1282 -48 -1470 -2 -52 4 -230 15 -395 10 -165 19 -316
19 -335 0 -42 15 -69 29 -55 13 13 18 118 56 1290 20 606 36 998 41 1006 7 12
111 12 118 0 3 -5 -1 -188 -8 -407 -8 -220 -18 -496 -21 -614 -4 -118 -10
-303 -14 -410 -3 -107 -3 -242 0 -300 4 -58 9 -154 13 -215 3 -60 9 -163 12
-227 5 -76 11 -122 20 -128 8 -8 14 -8 19 1 7 11 16 197 29 629 20 642 57
1674 59 1677 1 1 29 3 62 4 l60 3 -2 -150 c-2 -150 -19 -729 -28 -924 -16
-378 -17 -609 -1 -890 19 -339 22 -360 41 -360 21 0 23 21 30 245 3 110 8 265
10 345 5 147 12 362 41 1230 8 267 17 491 19 498 3 8 25 12 65 12 l60 0 0 -66
c0 -36 -4 -186 -10 -332 -40 -1109 -43 -1233 -30 -1467 7 -126 15 -248 19
-270 l6 -39 26 59 c26 59 27 65 38 435 6 206 20 634 31 950 11 316 21 609 23
650 l2 75 65 0 65 0 -3 -75 c-8 -259 -25 -764 -37 -1127 -8 -232 -15 -448 -14
-480 l1 -58 52 110 53 110 17 525 c9 289 19 613 22 720 3 107 7 214 10 238 l5
42 63 0 63 0 -4 -112 c-23 -672 -33 -978 -33 -1035 l1 -68 43 92 c24 50 49
107 54 125 6 18 13 139 17 268 3 129 10 339 15 465 5 127 10 238 10 248 0 14
10 17 66 17 l67 0 -7 -102 c-3 -57 -8 -209 -11 -338 l-5 -235 52 105 52 105 7
190 c4 105 8 210 8 233 l1 44 63 -5 c34 -3 64 -6 65 -6 2 -1 2 -30 0 -66 -1
-36 -1 -65 2 -65 9 1 513 1090 507 1097 -4 3 -174 -4 -379 -16 -601 -36 -997
-60 -1093 -66 -49 -3 -232 -14 -405 -25 -380 -23 -850 -52 -1415 -85 -1346
-79 -1341 -79 -1346 -50 -9 47 357 130 766 174 348 38 555 48 1165 56 212 3
653 10 980 15 327 5 854 12 1171 16 l577 7 67 144 c38 79 65 147 61 151 -10
10 -1442 11 -1976 1z m-3061 -575 c28 -36 26 -66 -5 -97 -37 -37 -88 -45 -122
-20 -66 49 -17 141 75 143 22 0 37 -8 52 -26z"/>
<path d="M11530 8097 c0 -9 301 -659 309 -668 3 -4 74 -12 156 -19 210 -16
392 -41 835 -115 212 -35 493 -80 625 -99 505 -74 2177 -282 2790 -346 185
-20 282 -38 215 -39 -14 -1 -72 3 -130 9 -58 5 -377 32 -710 60 -333 27 -708
59 -835 70 -126 11 -464 41 -750 65 -864 75 -1165 104 -1690 164 -397 45 -409
46 -403 30 3 -8 52 -115 109 -238 l104 -224 5 79 c6 87 -2 81 81 76 l32 -2 -7
-186 -8 -187 44 -93 c24 -52 46 -94 51 -94 4 0 7 53 7 118 0 64 3 188 7 275
l6 157 49 0 c33 0 50 -5 54 -15 3 -7 1 -144 -5 -302 -19 -489 -20 -455 30
-566 24 -53 45 -95 46 -93 1 1 10 213 19 472 8 258 17 474 19 479 1 6 25 8 54
7 l51 -4 0 -56 c0 -61 -26 -809 -35 -1004 l-5 -117 44 -96 c23 -52 45 -98 48
-100 3 -3 8 88 12 202 4 114 9 262 11 328 3 66 10 278 16 470 6 193 14 353 18
357 3 3 27 4 54 1 l47 -6 0 -43 c0 -23 -7 -229 -14 -456 -8 -227 -20 -563 -26
-747 l-12 -333 42 -94 c24 -52 46 -94 49 -94 3 0 7 48 9 108 1 59 9 298 17
532 8 234 19 578 26 765 6 187 15 344 19 348 4 5 28 5 54 2 55 -9 50 35 36
-361 -42 -1183 -42 -1158 -22 -1464 17 -249 22 -290 40 -325 15 -28 21 -34 22
-20 0 11 7 209 15 440 8 231 21 627 30 880 25 766 27 820 32 829 6 8 90 3 99
-7 3 -3 1 -135 -5 -294 -6 -158 -13 -380 -17 -493 -3 -113 -10 -297 -14 -410
-9 -228 -7 -318 15 -690 15 -242 22 -287 44 -265 9 9 20 236 36 740 21 659 36
1074 40 1155 2 52 4 130 5 173 l0 77 33 0 c17 0 43 -3 56 -7 l23 -6 -6 -176
c-48 -1300 -47 -1242 -26 -1571 11 -168 20 -316 20 -330 0 -34 16 -58 30 -44
13 13 17 103 55 1329 4 99 10 288 15 420 6 132 10 268 10 303 l0 62 33 0 c17
0 42 -3 55 -6 l23 -7 -5 -151 c-5 -134 -11 -304 -31 -921 -10 -281 -9 -390 5
-613 22 -384 23 -397 40 -397 23 0 27 65 45 660 9 297 23 720 31 940 7 220 14
418 14 439 l0 39 51 -6 c29 -4 54 -8 56 -11 2 -2 -3 -208 -12 -457 -32 -927
-32 -881 -11 -1239 10 -184 23 -341 28 -347 28 -36 35 15 43 317 6 227 41
1282 49 1485 3 66 6 146 6 178 0 63 4 66 80 51 l32 -7 -5 -141 c-4 -78 -14
-380 -24 -671 -17 -523 -17 -535 3 -863 11 -182 24 -335 27 -339 4 -4 13 -1
19 5 13 13 14 36 63 1502 10 272 19 497 20 499 2 1 27 0 55 -4 l52 -7 -6 -127
c-7 -128 -20 -535 -32 -961 -5 -170 -2 -319 10 -540 19 -338 20 -350 41 -350
21 0 23 26 35 425 6 198 13 425 16 505 26 728 34 971 34 1004 l0 39 52 -7 c29
-4 54 -9 56 -11 2 -1 -4 -195 -13 -429 -24 -673 -26 -924 -6 -1227 10 -146 21
-271 25 -278 6 -9 11 -9 21 -1 9 7 14 68 19 218 4 114 11 338 16 497 5 160 12
364 15 455 13 412 27 745 32 753 6 9 83 -1 96 -12 4 -4 1 -191 -7 -417 -28
-792 -28 -806 -12 -1089 21 -363 25 -395 41 -395 21 0 23 19 30 220 3 102 12
383 20 625 8 242 17 517 20 610 3 94 8 232 11 307 l7 138 41 -6 c71 -10 67 0
61 -151 -32 -780 -36 -1051 -21 -1304 23 -372 27 -418 36 -424 22 -14 29 43
39 345 6 179 20 580 31 891 11 311 20 577 20 592 0 26 2 27 49 27 28 0 52 -4
55 -8 3 -5 1 -123 -4 -263 -30 -833 -31 -890 -20 -1061 6 -95 15 -245 21 -333
9 -153 18 -191 38 -169 5 5 14 155 21 334 6 179 20 579 30 888 11 310 20 571
20 579 0 13 10 15 50 11 28 -3 53 -7 55 -10 3 -2 -4 -252 -15 -554 l-20 -549
21 -335 c11 -184 25 -339 30 -344 6 -6 13 -6 19 0 7 7 31 587 55 1339 3 94 8
230 11 303 7 146 2 138 77 126 l37 -7 -5 -106 c-26 -555 -33 -1032 -16 -1271
6 -91 14 -210 17 -265 3 -55 10 -104 15 -109 20 -22 29 15 34 135 5 121 29
854 40 1214 3 99 8 229 11 288 l6 109 47 -7 c25 -4 49 -10 53 -13 4 -4 3 -106
-2 -227 -10 -245 -25 -725 -25 -795 0 -25 3 -103 7 -175 29 -509 31 -526 56
-511 13 8 20 102 27 366 13 519 44 1320 51 1331 5 8 85 0 96 -10 4 -3 -1 -229
-10 -501 -17 -487 -17 -500 3 -827 19 -316 28 -378 50 -342 8 11 19 303 44
1089 6 190 14 396 17 458 l6 112 38 0 c21 0 45 -2 52 -5 16 -6 16 -3 -6 -622
-9 -262 -9 -385 0 -530 7 -103 15 -249 19 -323 7 -149 11 -173 28 -167 20 6
24 62 36 457 22 701 40 1162 45 1168 4 3 27 1 54 -4 l47 -9 0 -45 c-1 -25 -7
-233 -15 -463 -12 -380 -12 -446 4 -720 9 -166 19 -317 22 -334 6 -38 31 -45
38 -10 3 12 12 263 21 557 22 732 32 990 38 996 8 8 51 -6 76 -25 l24 -19 -12
-428 c-11 -372 -10 -467 3 -714 18 -310 23 -367 35 -375 22 -13 29 36 35 235
11 371 26 811 31 905 2 50 5 123 5 163 0 39 4 72 10 72 16 0 58 -151 76 -280
13 -99 18 -228 23 -613 l6 -489 38 71 c93 172 107 319 123 1231 7 394 0 548
-32 768 -50 344 -191 575 -394 647 -183 65 -2075 287 -3450 405 -373 32 -810
58 -1145 70 -451 15 -495 16 -495 7z"/>
<path d="M9380 5756 l0 -186 100 0 c141 0 180 23 180 105 0 28 -7 44 -28 63
l-28 25 23 23 c33 33 32 92 -3 125 -23 22 -35 24 -135 27 l-109 4 0 -186z
m176 116 c19 -13 23 -39 8 -61 -12 -17 -26 -21 -65 -21 l-49 0 0 45 0 45 48 0
c26 0 52 -4 58 -8z m12 -154 c7 -7 12 -21 12 -33 0 -33 -20 -45 -77 -45 l-53
0 0 45 0 45 53 0 c29 0 58 -5 65 -12z"/>
<path d="M9781 5851 c-17 -50 -47 -133 -66 -186 l-35 -96 42 3 c38 3 43 6 52
36 l9 33 76 -3 75 -3 10 -32 c8 -31 12 -33 52 -33 24 0 44 1 44 3 0 1 -29 83
-64 182 l-64 180 -50 3 -49 3 -32 -90z m107 -88 l21 -63 -51 0 c-36 0 -49 4
-45 13 2 6 13 38 23 70 10 31 21 54 25 50 3 -5 16 -36 27 -70z"/>
<path d="M10080 5756 l0 -186 40 0 40 0 0 75 0 75 38 0 c20 0 42 -4 49 -8 16
-10 33 -57 33 -91 0 -37 17 -51 63 -51 33 0 38 3 32 18 -4 9 -13 44 -20 77 -7
36 -20 65 -32 75 -20 15 -19 15 9 42 25 23 29 34 26 69 -5 68 -35 83 -169 87
l-109 4 0 -186z m194 92 c19 -31 -4 -53 -63 -56 l-51 -3 0 41 0 41 51 -3 c36
-2 55 -8 63 -20z"/>
<path d="M10440 5756 l0 -186 100 0 c141 0 180 23 180 105 0 28 -7 44 -28 63
l-28 25 23 23 c33 33 32 92 -3 125 -23 22 -35 24 -135 27 l-109 4 0 -186z
m176 116 c19 -13 23 -39 8 -61 -12 -17 -26 -21 -65 -21 l-49 0 0 45 0 45 48 0
c26 0 52 -4 58 -8z m12 -154 c7 -7 12 -21 12 -33 0 -33 -20 -45 -77 -45 l-53
0 0 45 0 45 53 0 c29 0 58 -5 65 -12z"/>
<path d="M10841 5851 c-17 -50 -47 -133 -66 -186 l-35 -96 42 3 c38 3 43 6 52
36 l9 33 76 -3 75 -3 10 -32 c8 -31 12 -33 52 -33 24 0 44 1 44 3 0 1 -29 83
-64 182 l-64 180 -50 3 -49 3 -32 -90z m107 -88 l21 -63 -51 0 c-36 0 -49 4
-45 13 2 6 13 38 23 70 10 31 21 54 25 50 3 -5 16 -36 27 -70z"/>
<path d="M10118 5354 c-53 -28 -65 -98 -25 -138 l23 -23 -28 -25 c-54 -50 -27
-136 50 -158 20 -5 74 -10 120 -10 l82 0 0 80 c0 79 0 80 25 80 21 0 25 5 25
30 0 25 -4 30 -25 30 -22 0 -25 4 -25 35 0 32 -3 35 -29 35 -23 0 -30 -6 -37
-32 -9 -30 -14 -33 -53 -36 -51 -4 -71 10 -71 49 0 22 6 32 26 39 14 6 30 8
35 4 5 -3 9 9 9 25 0 29 -2 31 -37 31 -21 -1 -50 -7 -65 -16z m142 -244 l0
-50 -41 0 c-56 0 -79 14 -79 50 0 36 21 49 78 50 l42 0 0 -50z"/>
<path d="M8940 5175 c0 -13 60 -15 480 -15 420 0 480 2 480 15 0 13 -60 15
-480 15 -420 0 -480 -2 -480 -15z"/>
<path d="M10540 5175 c0 -13 60 -15 480 -15 420 0 480 2 480 15 0 13 -60 15
-480 15 -420 0 -480 -2 -480 -15z"/>
<path d="M9311 4782 c-53 -28 -71 -72 -71 -171 0 -68 4 -90 22 -118 26 -44 71
-63 144 -63 52 0 59 3 95 39 29 28 39 47 39 70 0 29 -2 31 -35 31 -28 0 -35
-4 -35 -19 0 -21 -44 -61 -66 -61 -26 0 -62 23 -73 47 -14 31 -14 125 0 157
28 60 114 53 133 -11 8 -30 13 -33 46 -33 l37 0 -7 38 c-8 47 -26 76 -61 96
-37 22 -125 21 -168 -2z"/>
<path d="M9671 4711 c-17 -50 -47 -133 -66 -186 l-35 -96 42 3 c38 3 43 6 52
36 l9 33 76 -3 75 -3 10 -32 c8 -31 12 -33 52 -33 24 0 44 1 44 3 0 1 -29 83
-64 182 l-64 180 -50 3 -49 3 -32 -90z m107 -88 l21 -63 -51 0 c-36 0 -49 4
-45 13 2 6 13 38 23 70 10 31 21 54 25 50 3 -5 16 -36 27 -70z"/>
<path d="M9980 4616 l0 -186 100 0 c141 0 180 23 180 105 0 28 -7 44 -28 63
l-28 25 23 23 c33 33 32 92 -3 125 -23 22 -35 24 -135 27 l-109 4 0 -186z
m176 116 c19 -13 23 -39 8 -61 -12 -17 -26 -21 -65 -21 l-49 0 0 45 0 45 48 0
c26 0 52 -4 58 -8z m12 -154 c7 -7 12 -21 12 -33 0 -33 -20 -45 -77 -45 l-53
0 0 45 0 45 53 0 c29 0 58 -5 65 -12z"/>
<path d="M10320 4615 l0 -185 125 0 125 0 0 35 0 35 -85 0 -85 0 0 40 0 40 75
0 75 0 0 35 0 35 -75 0 -75 0 0 40 0 39 83 3 82 3 3 33 3 32 -125 0 -126 0 0
-185z"/>
<path d="M10630 4615 l0 -185 121 0 c106 0 120 2 115 16 -3 9 -6 24 -6 35 0
17 -8 19 -75 19 l-75 0 0 150 0 150 -40 0 -40 0 0 -185z"/>
<path d="M10970 4793 c-23 -9 -60 -45 -76 -75 -8 -16 -14 -57 -14 -103 0 -82
11 -114 54 -155 21 -19 40 -25 89 -28 82 -4 124 17 155 78 47 95 18 235 -58
272 -34 17 -117 23 -150 11z m123 -80 c13 -13 17 -33 17 -98 0 -65 -4 -85 -17
-97 -42 -37 -101 -28 -122 19 -14 31 -14 125 0 157 21 46 81 55 122 19z"/>
</g>
</svg>
